# xmcd
#
# Track frame offsets:
# 150
# 27830
# 54624
# 76736
# 94257
# 131014
# 147272
# 162344
# 200828
# 218568
# 249167
# 275300
#
# Disc length: 4476 seconds
#
# Revision: 0
# Processed by: cddbd v1.5.2PL0 Copyright (c) Steve Scherf et al.
# Submitted via: Audion 3.0.2 (http://www.panic.com/audion/)
#
DISCID=a4117a0c
DTITLE=Yello - Flag
DYEAR=1900
DGENRE=
TTITLE0=Tied Up
TTITLE1=Of Course I 'm Lying
TTITLE2=3rd Of June
TTITLE3=Blazing Saddles
TTITLE4=The Race
TTITLE5=Alhambra
TTITLE6=Otto Di Catania
TTITLE7=Tied Up In Red
TTITLE8=Tied Up In Gear
TTITLE9=Tied Up In Fantasia
TTITLE10=Tied Up In Mind
TTITLE11=The Race (Extended Version)
EXTD=
EXTT0=
EXTT1=
EXTT2=
EXTT3=
EXTT4=
EXTT5=
EXTT6=
EXTT7=
EXTT8=
EXTT9=
EXTT10=
EXTT11=
PLAYORDER=
